<?xml version="1.0" standalone="no"?>
<!DOCTYPE svg PUBLIC "-//W3C//DTD SVG 20010904//EN"
 "http://www.w3.org/TR/2001/REC-SVG-20010904/DTD/svg10.dtd">
<svg version="1.0" xmlns="http://www.w3.org/2000/svg"
 width="366.000000pt" height="366.000000pt" viewBox="0 0 366.000000 366.000000"
 preserveAspectRatio="xMidYMid meet">
<metadata>
Created by potrace 1.14, written by Peter Selinger 2001-2017
</metadata>
<g transform="translate(0.000000,366.000000) scale(0.100000,-0.100000)"
fill="#000000" stroke="none">
<path d="M32 3028 c-17 -17 -17 -2409 0 -2426 18 -18 1521 -17 1536 1 14 16
16 456 2 477 -8 13 -73 15 -466 18 -408 2 -459 1 -475 -13 -14 -13 -17 -31
-16 -93 1 -42 6 -83 10 -89 6 -10 92 -13 373 -13 l364 0 0 -45 0 -45 -565 0
-565 0 0 1015 0 1015 45 0 45 0 0 -958 c0 -732 3 -961 12 -970 16 -16 170 -16
186 0 17 17 17 2109 0 2126 -17 17 -469 17 -486 0z"/>
<path d="M1796 3024 c-3 -9 -6 -554 -6 -1213 0 -918 3 -1200 12 -1209 18 -18
471 -17 487 1 8 10 12 202 13 658 3 629 3 643 21 609 29 -55 51 -93 62 -105 6
-6 19 -29 30 -51 11 -21 26 -45 33 -52 6 -7 12 -19 12 -27 0 -7 4 -15 8 -17
10 -4 122 -196 122 -209 0 -5 4 -9 9 -9 5 0 13 -10 17 -22 4 -13 10 -25 13
-28 6 -4 78 -123 107 -175 6 -11 29 -50 52 -88 23 -37 42 -69 42 -72 0 -2 12
-21 26 -42 14 -21 44 -69 66 -108 21 -38 47 -82 56 -97 9 -14 32 -53 51 -85
55 -95 51 -93 162 -93 142 0 147 4 104 81 -14 24 -28 51 -32 59 -3 8 -10 17
-13 20 -8 5 -52 80 -72 120 -7 14 -17 30 -23 36 -5 6 -19 28 -30 50 -11 21
-22 41 -25 44 -7 7 -117 190 -160 268 -8 14 -21 32 -27 40 -7 7 -13 19 -13 27
0 7 -4 15 -8 17 -11 4 -82 123 -82 136 0 6 -3 12 -8 14 -10 4 -142 224 -142
237 0 5 -4 11 -8 13 -9 3 -82 122 -82 132 0 4 -5 12 -11 19 -6 7 -27 40 -47
74 -95 161 -138 232 -169 280 -18 28 -36 60 -40 70 -4 10 -11 23 -16 28 -5 6
-37 57 -71 114 -69 115 -86 132 -110 112 -14 -12 -16 -103 -16 -897 l0 -884
-45 0 -45 0 0 1015 0 1015 46 0 c25 0 51 -6 58 -12 9 -10 174 -283 230 -382 6
-11 26 -42 44 -70 17 -28 32 -56 32 -63 0 -7 3 -13 8 -13 4 0 19 -21 32 -47
14 -26 30 -53 35 -59 6 -6 19 -28 30 -50 11 -21 23 -41 26 -44 7 -6 53 -84 71
-120 7 -14 15 -27 19 -30 3 -3 17 -25 31 -50 25 -45 119 -201 138 -230 6 -8
16 -26 22 -40 7 -14 15 -27 18 -30 8 -6 70 -109 70 -115 0 -2 22 -39 50 -82
27 -43 50 -84 50 -90 0 -7 4 -13 9 -13 5 0 13 -10 17 -22 4 -13 10 -25 13 -28
10 -8 81 -130 81 -140 0 -5 4 -10 8 -12 5 -1 22 -26 38 -55 16 -28 65 -112
109 -185 44 -73 85 -142 91 -153 21 -39 49 -80 64 -92 16 -13 155 -18 184 -7
14 6 16 122 16 1213 0 925 -3 1210 -12 1219 -17 17 -469 17 -486 0 -9 -9 -12
-171 -12 -668 0 -712 -4 -655 53 -751 12 -20 39 -66 60 -102 39 -68 67 -88 92
-67 13 11 15 111 15 701 l0 689 40 0 40 0 -1 -897 c-1 -658 -4 -891 -12 -870
-6 15 -14 27 -19 27 -4 0 -8 4 -8 9 0 6 -13 30 -30 54 -16 25 -30 48 -30 52 0
3 -12 25 -27 48 -45 68 -52 81 -65 107 -7 14 -16 27 -19 30 -4 3 -17 24 -30
48 -13 24 -29 51 -34 60 -19 31 -60 97 -73 117 -6 11 -17 29 -22 40 -6 11 -19
34 -30 50 -11 17 -25 41 -32 55 -7 14 -15 27 -19 30 -7 6 -53 83 -71 120 -7
14 -16 27 -19 30 -4 3 -17 23 -28 45 -23 42 -27 48 -78 129 -18 28 -33 56 -33
63 0 7 -3 13 -8 13 -4 0 -19 21 -32 48 -14 26 -28 49 -31 52 -3 3 -19 27 -35
55 -16 27 -34 59 -41 70 -7 11 -17 29 -23 40 -6 11 -19 34 -30 50 -11 17 -25
41 -32 55 -7 14 -16 27 -19 30 -4 3 -17 24 -30 48 -29 52 -36 65 -72 119 -15
24 -27 45 -27 48 0 4 -12 25 -27 48 -44 67 -52 80 -66 107 -6 14 -20 34 -29
44 -10 11 -18 23 -18 28 0 4 -96 8 -214 8 -186 0 -215 -2 -220 -16z"/>
</g>
</svg>
